# xmcd CD database file
#
# Track frame offsets:
#	150
#	30110
#	39369
#	104572
#	120425
#	156781
#	203841
#
# Disc length: 3942 seconds
#
# Revision: 0
# Processed by: cddbd v1.5.2PL0 Copyright (c) Steve Scherf et al.
# Submitted via: CDex 1.70beta2
#
DISCID=4b0f6407
DTITLE=Alien Nature - Construction
DYEAR=2008
DGENRE=New Age
TTITLE0=Neutron
TTITLE1=Construction 1
TTITLE2=Departure
TTITLE3=Construction 2
TTITLE4=Offshore
TTITLE5=The Source
TTITLE6=Through Rain, Through Tears
EXTD=YEAR: 2008
EXTT0=
EXTT1=
EXTT2=
EXTT3=
EXTT4=
EXTT5=
EXTT6=
PLAYORDER=
